<svg width="177" height="30" viewBox="0 0 177 30" fill="none" xmlns="http://www.w3.org/2000/svg">
<rect width="177" height="30" rx="15" fill="#00DB12" fill-opacity="0.2"/>
<rect x="1" y="1" width="175" height="28" rx="14" stroke="#00DB12" stroke-opacity="0.3" stroke-width="2"/>
<path d="M27.1743 12.5526L28.8304 11.4726L27.9059 9.66315H36.5998L32.2543 18.1768L31.3299 16.3642L29.6738 17.4473L32.2543 22.5L39.912 7.5H24.5938L27.1743 12.5526Z" fill="url(#paint0_linear_180_6569)"/>
<path d="M47.4881 9.09091L50.3273 17.6776H50.4391L53.2729 9.09091H55.4462L51.6004 20H49.1607L45.3202 9.09091H47.4881ZM56.7979 20V11.8182H58.7262V20H56.7979ZM57.7674 10.657C57.462 10.657 57.1992 10.5558 56.979 10.3533C56.7588 10.1474 56.6487 9.90057 56.6487 9.61293C56.6487 9.32173 56.7588 9.07493 56.979 8.87251C57.1992 8.66655 57.462 8.56357 57.7674 8.56357C58.0763 8.56357 58.3391 8.66655 58.5557 8.87251C58.7759 9.07493 58.886 9.32173 58.886 9.61293C58.886 9.90057 58.7759 10.1474 58.5557 10.3533C58.3391 10.5558 58.0763 10.657 57.7674 10.657ZM60.709 20V11.8182H62.5787V13.1818H62.6639C62.8131 12.7095 63.0688 12.3455 63.431 12.0898C63.7967 11.8306 64.214 11.701 64.6828 11.701C64.7893 11.701 64.9082 11.7063 65.0396 11.717C65.1746 11.7241 65.2864 11.7365 65.3752 11.7543V13.5281C65.2935 13.4996 65.1639 13.4748 64.9864 13.4535C64.8124 13.4286 64.6437 13.4162 64.4803 13.4162C64.1288 13.4162 63.8127 13.4925 63.5322 13.6452C63.2552 13.7944 63.0368 14.0021 62.877 14.2685C62.7172 14.5348 62.6373 14.842 62.6373 15.19V20H60.709ZM69.9415 20.1598C69.1212 20.1598 68.4128 19.9893 67.8162 19.6484C67.2231 19.304 66.7668 18.8175 66.4472 18.1889C66.1276 17.5568 65.9678 16.8129 65.9678 15.957C65.9678 15.1154 66.1276 14.3768 66.4472 13.7411C66.7704 13.1019 67.2214 12.6048 67.8002 12.2496C68.379 11.891 69.0591 11.7116 69.8403 11.7116C70.3446 11.7116 70.8204 11.7933 71.2679 11.9567C71.7189 12.1165 72.1166 12.3651 72.4611 12.7024C72.8091 13.0398 73.0825 13.4695 73.2814 13.9915C73.4802 14.5099 73.5797 15.1278 73.5797 15.8452V16.4364H66.8734V15.1367H71.7313C71.7278 14.7674 71.6479 14.4389 71.4916 14.1513C71.3354 13.8601 71.117 13.631 70.8364 13.4641C70.5594 13.2972 70.2363 13.2138 69.867 13.2138C69.4728 13.2138 69.1266 13.3097 68.8283 13.5014C68.53 13.6896 68.2974 13.9382 68.1305 14.2472C67.9671 14.5526 67.8837 14.8881 67.8801 15.2539V16.3885C67.8801 16.8643 67.9671 17.2727 68.1411 17.6136C68.3151 17.951 68.5584 18.2102 68.8709 18.3913C69.1834 18.5689 69.5491 18.6577 69.9682 18.6577C70.2487 18.6577 70.5026 18.6186 70.7299 18.5405C70.9572 18.4588 71.1543 18.3398 71.3212 18.1836C71.4881 18.0273 71.6141 17.8338 71.6994 17.603L73.4998 17.8054C73.3861 18.2812 73.1695 18.6967 72.8499 19.0518C72.5339 19.4034 72.129 19.6768 71.6354 19.8722C71.1418 20.0639 70.5772 20.1598 69.9415 20.1598ZM81.3127 20L78.2339 9.09091H80.3592L82.3248 17.1076H82.426L84.5247 9.09091H86.4583L88.5624 17.1129H88.6582L90.6238 9.09091H92.7492L89.6703 20H87.7207L85.5368 12.3455H85.4516L83.2623 20H81.3127ZM96.7682 20.1598C95.9691 20.1598 95.2767 19.984 94.6907 19.6325C94.1048 19.2809 93.6503 18.7891 93.3271 18.157C93.0075 17.5249 92.8477 16.7862 92.8477 15.9411C92.8477 15.0959 93.0075 14.3555 93.3271 13.7198C93.6503 13.0842 94.1048 12.5906 94.6907 12.239C95.2767 11.8874 95.9691 11.7116 96.7682 11.7116C97.5672 11.7116 98.2596 11.8874 98.8456 12.239C99.4315 12.5906 99.8843 13.0842 100.204 13.7198C100.527 14.3555 100.689 15.0959 100.689 15.9411C100.689 16.7862 100.527 17.5249 100.204 18.157C99.8843 18.7891 99.4315 19.2809 98.8456 19.6325C98.2596 19.984 97.5672 20.1598 96.7682 20.1598ZM96.7788 18.6151C97.212 18.6151 97.5743 18.4961 97.8655 18.2582C98.1566 18.0167 98.3733 17.6935 98.5153 17.2887C98.6609 16.8839 98.7337 16.4329 98.7337 15.9357C98.7337 15.435 98.6609 14.9822 98.5153 14.5774C98.3733 14.169 98.1566 13.8441 97.8655 13.6026C97.5743 13.3612 97.212 13.2404 96.7788 13.2404C96.3349 13.2404 95.9656 13.3612 95.6709 13.6026C95.3797 13.8441 95.1613 14.169 95.0157 14.5774C94.8736 14.9822 94.8026 15.435 94.8026 15.9357C94.8026 16.4329 94.8736 16.8839 95.0157 17.2887C95.1613 17.6935 95.3797 18.0167 95.6709 18.2582C95.9656 18.4961 96.3349 18.6151 96.7788 18.6151ZM102.325 20V11.8182H104.195V13.1818H104.28C104.429 12.7095 104.685 12.3455 105.047 12.0898C105.413 11.8306 105.83 11.701 106.299 11.701C106.405 11.701 106.524 11.7063 106.656 11.717C106.791 11.7241 106.903 11.7365 106.991 11.7543V13.5281C106.91 13.4996 106.78 13.4748 106.603 13.4535C106.429 13.4286 106.26 13.4162 106.097 13.4162C105.745 13.4162 105.429 13.4925 105.148 13.6452C104.871 13.7944 104.653 14.0021 104.493 14.2685C104.333 14.5348 104.254 14.842 104.254 15.19V20H102.325ZM110.03 17.4325L110.025 15.1048H110.334L113.274 11.8182H115.527L111.911 15.8452H111.511L110.03 17.4325ZM108.273 20V9.09091H110.201V20H108.273ZM113.407 20L110.744 16.2766L112.044 14.9183L115.714 20H113.407ZM116.813 23.0682V11.8182H118.709V13.1712H118.821C118.92 12.9723 119.06 12.761 119.242 12.5373C119.423 12.31 119.668 12.1165 119.977 11.9567C120.286 11.7933 120.68 11.7116 121.159 11.7116C121.791 11.7116 122.361 11.8732 122.869 12.1964C123.38 12.516 123.785 12.9901 124.083 13.6186C124.385 14.2436 124.536 15.0107 124.536 15.9197C124.536 16.8182 124.389 17.5817 124.094 18.2102C123.799 18.8388 123.398 19.3182 122.89 19.6484C122.383 19.9787 121.807 20.1438 121.164 20.1438C120.696 20.1438 120.307 20.0657 119.998 19.9094C119.689 19.7532 119.44 19.565 119.252 19.3448C119.068 19.1211 118.924 18.9098 118.821 18.7109H118.741V23.0682H116.813ZM118.704 15.9091C118.704 16.4382 118.778 16.9016 118.927 17.2994C119.08 17.6971 119.298 18.0078 119.582 18.2315C119.87 18.4517 120.218 18.5618 120.626 18.5618C121.053 18.5618 121.409 18.4482 121.697 18.2209C121.985 17.9901 122.201 17.6758 122.347 17.2781C122.496 16.8768 122.571 16.4205 122.571 15.9091C122.571 15.4013 122.498 14.9503 122.352 14.5561C122.207 14.1619 121.99 13.853 121.702 13.6293C121.415 13.4055 121.056 13.2937 120.626 13.2937C120.215 13.2937 119.865 13.402 119.577 13.6186C119.289 13.8352 119.071 14.1388 118.922 14.5295C118.776 14.9201 118.704 15.38 118.704 15.9091ZM128.116 9.09091V20H126.188V9.09091H128.116ZM132.453 20.1651C131.935 20.1651 131.468 20.0728 131.052 19.8881C130.64 19.6999 130.314 19.4229 130.072 19.0572C129.834 18.6914 129.715 18.2404 129.715 17.7042C129.715 17.2425 129.8 16.8608 129.971 16.5589C130.141 16.2571 130.374 16.0156 130.669 15.8345C130.963 15.6534 131.295 15.5167 131.665 15.4244C132.038 15.3285 132.423 15.2592 132.821 15.2166C133.3 15.1669 133.689 15.1225 133.987 15.0835C134.285 15.0408 134.502 14.9769 134.637 14.8917C134.776 14.8029 134.845 14.6662 134.845 14.4815V14.4496C134.845 14.0483 134.726 13.7376 134.488 13.5174C134.25 13.2972 133.907 13.1871 133.46 13.1871C132.988 13.1871 132.613 13.2901 132.336 13.4961C132.062 13.7021 131.878 13.9453 131.782 14.2259L129.981 13.9702C130.124 13.473 130.358 13.0575 130.685 12.7237C131.011 12.3864 131.411 12.1342 131.883 11.9673C132.355 11.7969 132.877 11.7116 133.449 11.7116C133.843 11.7116 134.236 11.7578 134.626 11.8501C135.017 11.9425 135.374 12.0952 135.697 12.3082C136.02 12.5178 136.279 12.8036 136.475 13.1658C136.674 13.5281 136.773 13.9808 136.773 14.5241V20H134.919V18.8761H134.855C134.738 19.1033 134.573 19.3164 134.36 19.5153C134.151 19.7106 133.886 19.8686 133.566 19.9893C133.25 20.1065 132.879 20.1651 132.453 20.1651ZM132.954 18.7482C133.341 18.7482 133.676 18.6719 133.961 18.5192C134.245 18.3629 134.463 18.157 134.616 17.9013C134.772 17.6456 134.85 17.3668 134.85 17.065V16.1009C134.79 16.1506 134.687 16.1967 134.541 16.2393C134.399 16.282 134.239 16.3192 134.062 16.3512C133.884 16.3832 133.708 16.4116 133.534 16.4364C133.36 16.4613 133.209 16.4826 133.082 16.5004C132.794 16.5394 132.537 16.6033 132.309 16.6921C132.082 16.7809 131.903 16.9052 131.771 17.065C131.64 17.2212 131.574 17.4237 131.574 17.6722C131.574 18.0273 131.704 18.2955 131.963 18.4766C132.222 18.6577 132.553 18.7482 132.954 18.7482ZM142.281 20.1598C141.464 20.1598 140.763 19.9805 140.177 19.6218C139.594 19.2631 139.145 18.7678 138.829 18.1357C138.517 17.5 138.36 16.7685 138.36 15.9411C138.36 15.1101 138.52 14.3768 138.84 13.7411C139.159 13.1019 139.61 12.6048 140.193 12.2496C140.779 11.891 141.471 11.7116 142.27 11.7116C142.934 11.7116 143.522 11.8342 144.033 12.0792C144.548 12.3207 144.958 12.6634 145.264 13.1072C145.569 13.5476 145.743 14.0625 145.786 14.652H143.943C143.868 14.2578 143.691 13.9293 143.41 13.6665C143.133 13.4002 142.762 13.267 142.297 13.267C141.903 13.267 141.556 13.3736 141.258 13.5866C140.96 13.7962 140.727 14.098 140.56 14.4922C140.397 14.8864 140.315 15.3587 140.315 15.9091C140.315 16.4666 140.397 16.946 140.56 17.3473C140.724 17.745 140.953 18.0522 141.247 18.2688C141.546 18.4819 141.896 18.5884 142.297 18.5884C142.581 18.5884 142.835 18.5352 143.059 18.4286C143.286 18.3185 143.476 18.1605 143.629 17.9545C143.781 17.7486 143.886 17.4982 143.943 17.2035H145.786C145.74 17.7823 145.569 18.2955 145.274 18.7429C144.98 19.1868 144.578 19.5348 144.071 19.7869C143.563 20.0355 142.966 20.1598 142.281 20.1598ZM150.991 20.1598C150.171 20.1598 149.463 19.9893 148.866 19.6484C148.273 19.304 147.817 18.8175 147.497 18.1889C147.177 17.5568 147.018 16.8129 147.018 15.957C147.018 15.1154 147.177 14.3768 147.497 13.7411C147.82 13.1019 148.271 12.6048 148.85 12.2496C149.429 11.891 150.109 11.7116 150.89 11.7116C151.394 11.7116 151.87 11.7933 152.318 11.9567C152.769 12.1165 153.166 12.3651 153.511 12.7024C153.859 13.0398 154.132 13.4695 154.331 13.9915C154.53 14.5099 154.629 15.1278 154.629 15.8452V16.4364H147.923V15.1367H152.781C152.778 14.7674 152.698 14.4389 152.541 14.1513C152.385 13.8601 152.167 13.631 151.886 13.4641C151.609 13.2972 151.286 13.2138 150.917 13.2138C150.523 13.2138 150.176 13.3097 149.878 13.5014C149.58 13.6896 149.347 13.9382 149.18 14.2472C149.017 14.5526 148.933 14.8881 148.93 15.2539V16.3885C148.93 16.8643 149.017 17.2727 149.191 17.6136C149.365 17.951 149.608 18.2102 149.921 18.3913C150.233 18.5689 150.599 18.6577 151.018 18.6577C151.299 18.6577 151.552 18.6186 151.78 18.5405C152.007 18.4588 152.204 18.3398 152.371 18.1836C152.538 18.0273 152.664 17.8338 152.749 17.603L154.55 17.8054C154.436 18.2812 154.219 18.6967 153.9 19.0518C153.584 19.4034 153.179 19.6768 152.685 19.8722C152.192 20.0639 151.627 20.1598 150.991 20.1598Z" fill="#00DB12"/>
<defs>
<linearGradient id="paint0_linear_180_6569" x1="43.65" y1="9.98627" x2="17.6466" y2="11.8408" gradientUnits="userSpaceOnUse">
<stop offset="0.100157" stop-color="#059669"/>
<stop offset="0.707994" stop-color="#00D090"/>
</linearGradient>
</defs>
</svg>
